<svg width="9" height="8" viewBox="0 0 9 8" xmlns="http://www.w3.org/2000/svg">
<path d="M4.48891 4.38243L1.42957 7.44178C1.21811 7.65323 0.876188 7.65323 0.666982 7.44178L0.158591 6.93338C-0.0528637 6.72193 -0.0528637 6.38 0.158591 6.1708L2.32713 4.00226L0.158591 1.83373C-0.0528637 1.62227 -0.0528637 1.28034 0.158591 1.07114L0.664733 0.558249C0.876187 0.346795 1.21811 0.346795 1.42732 0.558249L4.48666 3.61759C4.70037 3.82905 4.70037 4.17098 4.48891 4.38243ZM8.80799 3.61759L5.74864 0.558249C5.53719 0.346795 5.19526 0.346795 4.98606 0.558249L4.47767 1.06664C4.26621 1.2781 4.26621 1.62002 4.47767 1.82923L6.6462 3.99776L4.47767 6.1663C4.26621 6.37775 4.26621 6.71968 4.47767 6.92889L4.98606 7.43728C5.19751 7.64873 5.53944 7.64873 5.74864 7.43728L8.80799 4.37793C9.01944 4.17098 9.01944 3.82905 8.80799 3.61759Z" />
</svg>
