<svg width="15" height="9" viewBox="0 0 15 9" fill="none" xmlns="http://www.w3.org/2000/svg">
<path fill-rule="evenodd" clip-rule="evenodd" d="M0.5 4.49999C0.5 4.36738 0.552678 4.24021 0.646447 4.14644C0.740215 4.05267 0.867392 3.99999 1 3.99999H12.793L9.646 0.853991C9.55211 0.760104 9.49937 0.632766 9.49937 0.499991C9.49937 0.367215 9.55211 0.239877 9.646 0.145991C9.73989 0.052104 9.86722 -0.000640866 10 -0.000640869C10.1328 -0.000640872 10.2601 0.052104 10.354 0.145991L14.354 4.14599C14.4006 4.19244 14.4375 4.24761 14.4627 4.30836C14.4879 4.3691 14.5009 4.43422 14.5009 4.49999C14.5009 4.56576 14.4879 4.63088 14.4627 4.69162C14.4375 4.75237 14.4006 4.80754 14.354 4.85399L10.354 8.85399C10.2601 8.94788 10.1328 9.00062 10 9.00062C9.86722 9.00062 9.73989 8.94788 9.646 8.85399C9.55211 8.7601 9.49937 8.63277 9.49937 8.49999C9.49937 8.36721 9.55211 8.23988 9.646 8.14599L12.793 4.99999H1C0.867392 4.99999 0.740215 4.94731 0.646447 4.85354C0.552678 4.75978 0.5 4.6326 0.5 4.49999Z" fill="white"/>
</svg>
