<svg width="20" height="20" viewBox="0 0 20 20" fill="none" xmlns="http://www.w3.org/2000/svg">
<rect width="20" height="20" rx="10" fill="#DFB178"/>
<path d="M5.56 13C5.38667 13 5.25 12.9533 5.15 12.86C5.05667 12.76 5.01 12.6267 5.01 12.46C5.01 12.2867 5.05667 12.1567 5.15 12.07C5.25 11.9833 5.38667 11.94 5.56 11.94H6.68V7.03H7.3L5.83 7.92C5.70333 7.99333 5.58333 8.02333 5.47 8.01C5.36333 7.99 5.27 7.94333 5.19 7.87C5.11667 7.79 5.06667 7.69667 5.04 7.59C5.01333 7.48333 5.02 7.37667 5.06 7.27C5.10667 7.15667 5.19333 7.06333 5.32 6.99L6.7 6.16C6.83333 6.08 6.96667 6.01333 7.1 5.96C7.23333 5.9 7.35667 5.87 7.47 5.87C7.61 5.87 7.72667 5.91 7.82 5.99C7.91333 6.06333 7.96 6.18667 7.96 6.36V11.94H8.98C9.15333 11.94 9.28667 11.9833 9.38 12.07C9.48 12.1567 9.53 12.2867 9.53 12.46C9.53 12.6333 9.48 12.7667 9.38 12.86C9.28667 12.9533 9.15333 13 8.98 13H5.56ZM11.3261 13C11.1128 13 10.9561 12.9533 10.8561 12.86C10.7628 12.76 10.7161 12.6167 10.7161 12.43C10.7161 12.3167 10.7461 12.2067 10.8061 12.1C10.8661 11.9933 10.9528 11.88 11.0661 11.76L13.0761 9.62C13.3828 9.3 13.6028 9.01 13.7361 8.75C13.8694 8.48333 13.9361 8.21667 13.9361 7.95C13.9361 7.61667 13.8294 7.36333 13.6161 7.19C13.4094 7.01667 13.1061 6.93 12.7061 6.93C12.4794 6.93 12.2528 6.96333 12.0261 7.03C11.7994 7.09 11.5694 7.19667 11.3361 7.35C11.2161 7.43 11.1028 7.46333 10.9961 7.45C10.8961 7.43667 10.8061 7.39333 10.7261 7.32C10.6528 7.24667 10.6028 7.15667 10.5761 7.05C10.5494 6.94333 10.5528 6.83667 10.5861 6.73C10.6261 6.61667 10.7061 6.52 10.8261 6.44C11.1128 6.24667 11.4328 6.1 11.7861 6C12.1461 5.9 12.5061 5.85 12.8661 5.85C13.3728 5.85 13.7994 5.92667 14.1461 6.08C14.4928 6.23333 14.7561 6.45667 14.9361 6.75C15.1161 7.04333 15.2061 7.4 15.2061 7.82C15.2061 8.1 15.1594 8.37333 15.0661 8.64C14.9794 8.90667 14.8428 9.17667 14.6561 9.45C14.4761 9.72333 14.2394 10.0133 13.9461 10.32L12.0661 12.28V11.94H15.0061C15.1861 11.94 15.3228 11.9833 15.4161 12.07C15.5094 12.1567 15.5561 12.2867 15.5561 12.46C15.5561 12.6333 15.5094 12.7667 15.4161 12.86C15.3228 12.9533 15.1861 13 15.0061 13H11.3261Z" fill="white"/>
</svg>
