<svg width="20" height="20" viewBox="0 0 20 20" fill="none" xmlns="http://www.w3.org/2000/svg">
<rect width="20" height="20" rx="10" fill="#DFB178"/>
<path d="M10 13.1C9.16667 13.1 8.53 12.7867 8.09 12.16C7.65 11.5267 7.43 10.6267 7.43 9.46C7.43 8.67333 7.52667 8.01333 7.72 7.48C7.92 6.94 8.21 6.53333 8.59 6.26C8.97667 5.98667 9.44667 5.85 10 5.85C10.84 5.85 11.4767 6.15667 11.91 6.77C12.35 7.38333 12.57 8.27667 12.57 9.45C12.57 10.23 12.47 10.8933 12.27 11.44C12.0767 11.98 11.79 12.3933 11.41 12.68C11.03 12.96 10.56 13.1 10 13.1ZM10 12.05C10.4533 12.05 10.7867 11.84 11 11.42C11.22 11 11.33 10.3433 11.33 9.45C11.33 8.55667 11.22 7.91 11 7.51C10.7867 7.10333 10.4533 6.9 10 6.9C9.55333 6.9 9.22 7.10333 9 7.51C8.78 7.91 8.67 8.55667 8.67 9.45C8.67 10.3433 8.78 11 9 11.42C9.22 11.84 9.55333 12.05 10 12.05Z" fill="white"/>
</svg>
