<svg width="36" height="37" viewBox="0 0 36 37" fill="none" xmlns="http://www.w3.org/2000/svg">
<rect y="0.660645" width="36" height="36" rx="18" fill="#E8F8F7"/>
<path d="M18 10.2162C17.121 10.2162 16.2617 10.4768 15.5308 10.9652C14.7999 11.4536 14.2303 12.1477 13.8939 12.9598C13.5575 13.7719 13.4695 14.6656 13.641 15.5277C13.8124 16.3898 14.2357 17.1818 14.8573 17.8033C15.4789 18.4249 16.2708 18.8482 17.1329 19.0197C17.9951 19.1912 18.8887 19.1032 19.7008 18.7668C20.5129 18.4304 21.2071 17.8607 21.6954 17.1298C22.1838 16.3989 22.4444 15.5397 22.4444 14.6606C22.4444 13.4819 21.9762 12.3514 21.1427 11.5179C20.3092 10.6844 19.1787 10.2162 18 10.2162ZM18 17.3273C17.4726 17.3273 16.957 17.1709 16.5185 16.8779C16.0799 16.5849 15.7382 16.1684 15.5363 15.6811C15.3345 15.1939 15.2817 14.6577 15.3846 14.1404C15.4875 13.6231 15.7414 13.148 16.1144 12.775C16.4873 12.4021 16.9625 12.1481 17.4798 12.0452C17.997 11.9423 18.5332 11.9951 19.0205 12.197C19.5078 12.3988 19.9242 12.7406 20.2173 13.1791C20.5103 13.6176 20.6667 14.1332 20.6667 14.6606C20.6667 15.3679 20.3857 16.0462 19.8856 16.5462C19.3855 17.0463 18.7072 17.3273 18 17.3273ZM26 27.1051V26.2162C26 24.566 25.3444 22.9833 24.1776 21.8164C23.0107 20.6495 21.428 19.994 19.7778 19.994H16.2222C14.572 19.994 12.9893 20.6495 11.8224 21.8164C10.6556 22.9833 10 24.566 10 26.2162V27.1051H11.7778V26.2162C11.7778 25.0374 12.246 23.907 13.0795 23.0735C13.913 22.24 15.0435 21.7717 16.2222 21.7717H19.7778C20.9565 21.7717 22.087 22.24 22.9205 23.0735C23.754 23.907 24.2222 25.0374 24.2222 26.2162V27.1051H26Z" fill="#4D7D6C"/>
</svg>
