<svg width="36" height="37" viewBox="0 0 36 37" fill="none" xmlns="http://www.w3.org/2000/svg">
<rect y="0.660645" width="36" height="36" rx="18" fill="#FFDDB3"/>
<path d="M21.623 18.8124V14.2837C21.623 13.3228 21.2413 12.4013 20.5619 11.7218C19.8824 11.0424 18.9609 10.6606 18 10.6606C17.0391 10.6606 16.1176 11.0424 15.4381 11.7218C14.7587 12.4013 14.377 13.3228 14.377 14.2837V18.8124M10.7331 17.7618C10.7696 17.3078 10.9756 16.8842 11.3103 16.5754C11.645 16.2665 12.0838 16.0951 12.5392 16.0952H23.4608C23.9162 16.0951 24.355 16.2665 24.6897 16.5754C25.0244 16.8842 25.2304 17.3078 25.2669 17.7618L25.9942 26.8193C26.0142 27.0686 25.9824 27.3193 25.9007 27.5556C25.8191 27.792 25.6894 28.0089 25.5199 28.1927C25.3503 28.3764 25.1445 28.5231 24.9155 28.6235C24.6864 28.7238 24.4391 28.7757 24.189 28.7757H11.811C11.5609 28.7757 11.3136 28.7238 11.0845 28.6235C10.8555 28.5231 10.6497 28.3764 10.4801 28.1927C10.3106 28.0089 10.1809 27.792 10.0993 27.5556C10.0176 27.3193 9.9858 27.0686 10.0058 26.8193L10.7331 17.7618Z" stroke="#4D7D6C" stroke-width="2" stroke-linecap="round" stroke-linejoin="round"/>
</svg>
