<svg width="17" height="18" viewBox="0 0 17 18" fill="none" xmlns="http://www.w3.org/2000/svg">
<path d="M7.14539 14.5967C8.73075 14.5964 10.2704 14.0656 11.5193 13.089L15.4457 17.0154L16.7086 15.7525L12.7822 11.8261C13.7593 10.5771 14.2904 9.03707 14.2908 7.4513C14.2908 3.51151 11.0852 0.305908 7.14539 0.305908C3.2056 0.305908 0 3.51151 0 7.4513C0 11.3911 3.2056 14.5967 7.14539 14.5967ZM7.14539 2.09226C10.1009 2.09226 12.5044 4.49579 12.5044 7.4513C12.5044 10.4068 10.1009 12.8103 7.14539 12.8103C4.18988 12.8103 1.78635 10.4068 1.78635 7.4513C1.78635 4.49579 4.18988 2.09226 7.14539 2.09226Z" fill="black"/>
<path d="M8.40655 6.18835C8.74506 6.52776 8.93174 6.97613 8.93174 7.4513H10.7181C10.7189 6.98187 10.6266 6.51694 10.4466 6.08339C10.2666 5.64984 10.0025 5.25626 9.6695 4.9254C8.31723 3.57492 5.97265 3.57492 4.62128 4.9254L5.88244 6.19014C6.56126 5.51311 7.73131 5.5149 8.40655 6.18835Z" fill="black"/>
</svg>
