<svg width="36" height="37" viewBox="0 0 36 37" fill="none" xmlns="http://www.w3.org/2000/svg">
<path d="M2.25 18.6606C2.25 14.4835 3.90937 10.4774 6.86307 7.52371C9.81677 4.57001 13.8228 2.91064 18 2.91064C22.1772 2.91064 26.1832 4.57001 29.1369 7.52371C32.0906 10.4774 33.75 14.4835 33.75 18.6606V20.9106H25.875C25.5766 20.9106 25.2905 21.0292 25.0795 21.2401C24.8685 21.4511 24.75 21.7373 24.75 22.0356V35.5356C24.75 35.834 24.8685 36.1202 25.0795 36.3311C25.2905 36.5421 25.5766 36.6606 25.875 36.6606H31.5C32.6935 36.6606 33.8381 36.1865 34.682 35.3426C35.5259 34.4987 36 33.3541 36 32.1606V18.6606C36 13.8867 34.1036 9.30838 30.7279 5.93272C27.3523 2.55707 22.7739 0.660645 18 0.660645C13.2261 0.660645 8.64773 2.55707 5.27208 5.93272C1.89642 9.30838 0 13.8867 0 18.6606V32.1606C0 33.3541 0.474106 34.4987 1.31802 35.3426C2.16193 36.1865 3.30653 36.6606 4.5 36.6606H10.125C10.4234 36.6606 10.7095 36.5421 10.9205 36.3311C11.1315 36.1202 11.25 35.834 11.25 35.5356V22.0356C11.25 21.7373 11.1315 21.4511 10.9205 21.2401C10.7095 21.0292 10.4234 20.9106 10.125 20.9106H2.25V18.6606ZM2.25 23.1606H9V34.4106H4.5C3.90326 34.4106 3.33097 34.1736 2.90901 33.7516C2.48705 33.3297 2.25 32.7574 2.25 32.1606V23.1606ZM33.75 23.1606V32.1606C33.75 32.7574 33.5129 33.3297 33.091 33.7516C32.669 34.1736 32.0967 34.4106 31.5 34.4106H27V23.1606H33.75Z" fill="#A1AB23"/>
</svg>
