<svg width="17" height="17" viewBox="0 0 17 17" fill="none" xmlns="http://www.w3.org/2000/svg">
<path d="M16.4668 5.21691C16.4578 4.54399 16.3319 3.87775 16.0945 3.24801C15.8887 2.71683 15.5743 2.23442 15.1715 1.8316C14.7687 1.42879 14.2863 1.11443 13.7551 0.908607C13.1335 0.67525 12.4767 0.54907 11.8129 0.535439C10.9581 0.497234 10.6871 0.486572 8.51745 0.486572C6.34774 0.486572 6.06964 0.486572 5.22113 0.535439C4.55757 0.54917 3.90114 0.675349 3.27977 0.908607C2.74851 1.11428 2.26602 1.42859 1.86319 1.83143C1.46035 2.23426 1.14604 2.71674 0.940368 3.24801C0.706544 3.86919 0.580637 4.52576 0.568089 5.18937C0.529884 6.04499 0.518333 6.31598 0.518333 8.48568C0.518333 10.6554 0.518333 10.9326 0.568089 11.782C0.581417 12.4466 0.706694 13.1023 0.940368 13.7251C1.14639 14.2562 1.46093 14.7385 1.8639 15.1412C2.26687 15.5439 2.7494 15.858 3.28066 16.0637C3.90033 16.3064 4.55687 16.4416 5.22202 16.4635C6.07764 16.5017 6.34863 16.5132 8.51833 16.5132C10.688 16.5132 10.9661 16.5132 11.8146 16.4635C12.4785 16.4504 13.1353 16.3245 13.7569 16.0912C14.2879 15.8851 14.7702 15.5707 15.173 15.1679C15.5758 14.7651 15.8902 14.2828 16.0963 13.7518C16.33 13.1298 16.4553 12.4741 16.4686 11.8087C16.5068 10.9539 16.5183 10.6829 16.5183 8.51234C16.5166 6.34264 16.5166 6.0672 16.4668 5.21691ZM8.51211 12.5887C6.2429 12.5887 4.40461 10.7505 4.40461 8.48124C4.40461 6.21203 6.2429 4.37373 8.51211 4.37373C9.60149 4.37373 10.6463 4.80649 11.4166 5.5768C12.1869 6.3471 12.6196 7.39186 12.6196 8.48124C12.6196 9.57062 12.1869 10.6154 11.4166 11.3857C10.6463 12.156 9.60149 12.5887 8.51211 12.5887ZM12.7831 5.1796C12.6573 5.17971 12.5327 5.15502 12.4164 5.10693C12.3002 5.05884 12.1945 4.98829 12.1056 4.89933C12.0166 4.81036 11.9461 4.70473 11.898 4.58847C11.8499 4.47221 11.8252 4.34761 11.8253 4.2218C11.8253 4.09608 11.8501 3.97159 11.8982 3.85544C11.9463 3.73929 12.0168 3.63375 12.1057 3.54485C12.1946 3.45595 12.3001 3.38543 12.4163 3.33732C12.5324 3.28921 12.6569 3.26445 12.7827 3.26445C12.9084 3.26445 13.0329 3.28921 13.149 3.33732C13.2652 3.38543 13.3707 3.45595 13.4596 3.54485C13.5485 3.63375 13.619 3.73929 13.6671 3.85544C13.7153 3.97159 13.74 4.09608 13.74 4.2218C13.74 4.75134 13.3118 5.1796 12.7831 5.1796Z" fill="#A1AB23"/>
<path d="M8.51211 11.1494C9.98569 11.1494 11.1803 9.95482 11.1803 8.48124C11.1803 7.00766 9.98569 5.81309 8.51211 5.81309C7.03854 5.81309 5.84397 7.00766 5.84397 8.48124C5.84397 9.95482 7.03854 11.1494 8.51211 11.1494Z" fill="#A1AB23"/>
</svg>
