<svg width="43" height="29" viewBox="0 0 43 29" fill="none" xmlns="http://www.w3.org/2000/svg">
<path d="M29.2035 14.5592L40.1008 5.09164V23.9187L29.2035 14.5592ZM15.1616 16.1626L18.9883 19.4844C19.5889 19.9946 20.372 20.3029 21.2277 20.3029H21.2808C22.1383 20.3029 22.9213 19.9928 23.529 19.479L23.5237 19.4826L27.3504 16.1608L38.9829 26.151H3.5344L15.1616 16.1626ZM3.51846 2.84698H39.0042L21.9593 17.6507C21.7677 17.8023 21.5305 17.8847 21.2861 17.8846H21.2383C20.9931 17.8849 20.7551 17.8018 20.5633 17.649L20.5651 17.6507L3.51846 2.84698ZM2.41827 5.08987L13.3138 14.5575L2.41827 23.9117V5.08987ZM40.6855 0.765321C40.2603 0.552725 39.7607 0.428711 39.231 0.428711H3.29346C2.77997 0.428834 2.27354 0.548315 1.81415 0.777722L1.83364 0.768864C1.28368 1.04012 0.820526 1.45976 0.496507 1.98038C0.172487 2.50101 0.000509075 3.10187 0 3.71508V25.2794C0.000937907 26.1521 0.348041 26.9888 0.965149 27.6059C1.58226 28.223 2.41897 28.5701 3.29169 28.571H39.2257C40.0984 28.5701 40.9351 28.223 41.5522 27.6059C42.1693 26.9888 42.5164 26.1521 42.5173 25.2794V3.71508C42.5173 2.42711 41.775 1.31098 40.6943 0.774179L40.6748 0.765321H40.6855Z" fill="#A1AB23"/>
</svg>
