<svg width="73" height="49" viewBox="0 0 73 49" fill="none" xmlns="http://www.w3.org/2000/svg">
<path d="M49.9293 24.159L68.5605 7.97222V40.161L49.9293 24.159ZM25.9218 26.9002L32.4644 32.5795C33.4912 33.4518 34.83 33.9789 36.293 33.9789H36.3838C37.8499 33.9789 39.1887 33.4488 40.2276 32.5704L40.2185 32.5764L46.7611 26.8971L66.6492 43.9774H6.04277L25.9218 26.9002ZM6.01551 4.13453H66.6855L37.5439 29.4445C37.2163 29.7037 36.8107 29.8446 36.3929 29.8443H36.3111C35.8919 29.8449 35.4849 29.7028 35.1571 29.4415L35.1601 29.4445L6.01551 4.13453ZM4.13453 7.96919L22.7626 24.1559L4.13453 40.1488V7.96919ZM69.56 0.575502C68.8331 0.212027 67.9789 0 67.0732 0H5.63083C4.75292 0.00020971 3.88708 0.204487 3.10165 0.596705L3.13497 0.58156C2.1947 1.04533 1.40286 1.76279 0.848878 2.6529C0.294901 3.54301 0.000870366 4.5703 0 5.61872V42.4872C0.00160354 43.9793 0.595046 45.4098 1.65012 46.4649C2.70519 47.5199 4.13571 48.1134 5.6278 48.115H67.0642C68.5563 48.1134 69.9868 47.5199 71.0418 46.4649C72.0969 45.4098 72.6904 43.9793 72.692 42.4872V5.61872C72.692 3.41666 71.4228 1.50842 69.5752 0.590647L69.5418 0.575502H69.56Z" fill="white"/>
</svg>
