<svg width="79" height="11" viewBox="0 0 79 11" fill="none" xmlns="http://www.w3.org/2000/svg">
<path d="M11.33 4.21558H7.14884L5.8525 0.0224609L4.55616 4.21558H0.375L3.75279 6.80323L2.47471 10.9775L5.8525 8.38981L9.23029 10.9775L7.93395 6.78434L11.33 4.21558Z" fill="#FFCE31"/>
<path d="M28.1537 4.21558H23.9726L22.6762 0.0224609L21.3799 4.21558H17.1987L20.5765 6.80323L19.2985 10.9775L22.6762 8.38981L26.054 10.9775L24.7577 6.78434L28.1537 4.21558Z" fill="#FFCE31"/>
<path d="M44.9775 4.21558H40.7963L39.5 0.0224609L38.2036 4.21558H34.0225L37.4003 6.80323L36.1222 10.9775L39.5 8.38981L42.8778 10.9775L41.5814 6.78434L44.9775 4.21558Z" fill="#FFCE31"/>
<path d="M61.8013 4.21558H57.6201L56.3238 0.0224609L55.0274 4.21558H50.8463L54.224 6.80323L52.946 10.9775L56.3238 8.38981L59.7015 10.9775L58.4052 6.78434L61.8013 4.21558Z" fill="#FFCE31"/>
<path d="M78.625 4.21558H74.4438L73.1475 0.0224609L71.8512 4.21558H67.67L71.0478 6.80323L69.7697 10.9775L73.1475 8.38981L76.5253 10.9775L75.2289 6.78434L78.625 4.21558Z" fill="#FFCE31"/>
</svg>
