<svg width="17" height="13" viewBox="0 0 17 13" fill="none" xmlns="http://www.w3.org/2000/svg">
<path d="M14.8735 3.24071C14.8841 3.38319 14.8841 3.52485 14.8841 3.66652C14.8841 8.00195 11.5843 12.9977 5.55377 12.9977C3.69584 12.9977 1.96981 12.4595 0.517334 11.5249C0.781124 11.555 1.03514 11.5656 1.30952 11.5656C2.7856 11.5691 4.21987 11.0755 5.38116 10.1644C4.69679 10.152 4.03337 9.9262 3.48354 9.51853C2.9337 9.11086 2.52489 8.54166 2.3142 7.89041C2.51693 7.92054 2.72047 7.94089 2.93378 7.94089C3.22769 7.94089 3.52324 7.90018 3.79761 7.82935C3.0549 7.67939 2.38705 7.27681 1.90762 6.69007C1.42819 6.10333 1.16679 5.36865 1.16785 4.61095V4.57024C1.60506 4.81368 2.11229 4.96593 2.64964 4.98628C2.19947 4.68714 1.83036 4.28123 1.57521 3.80475C1.32007 3.32828 1.18683 2.79606 1.18739 2.25557C1.18739 1.64657 1.34941 1.08805 1.63356 0.60118C2.45761 1.61483 3.48538 2.4441 4.65032 3.03526C5.81525 3.62642 7.09137 3.96631 8.39602 4.03289C8.34554 3.78864 8.31461 3.53544 8.31461 3.28142C8.31439 2.85069 8.39907 2.42415 8.5638 2.02617C8.72854 1.62819 8.97009 1.26658 9.27466 0.962009C9.57923 0.65744 9.94084 0.415885 10.3388 0.251152C10.7368 0.0864193 11.1633 0.0017395 11.5941 0.00195353C12.5385 0.00195353 13.3909 0.397638 13.9902 1.03757C14.7244 0.895597 15.4284 0.627577 16.0712 0.245389C15.8264 1.00323 15.3138 1.64584 14.6293 2.05284C15.2804 1.97857 15.9168 1.80733 16.5173 1.5448C16.0688 2.19865 15.5131 2.77203 14.8735 3.24071Z" fill="#A1AB23"/>
</svg>
