<svg width="17" height="13" viewBox="0 0 17 13" fill="none" xmlns="http://www.w3.org/2000/svg">
<path d="M8.56833 0.880371H8.65733C9.47933 0.883371 13.6443 0.913371 14.7673 1.21537C15.1068 1.30754 15.4162 1.48719 15.6645 1.73638C15.9128 1.98556 16.0914 2.29556 16.1823 2.63537C16.2833 3.01537 16.3543 3.51837 16.4023 4.03737L16.4123 4.14137L16.4343 4.40137L16.4423 4.50537C16.5073 5.41937 16.5153 6.27537 16.5163 6.46237V6.53737C16.5153 6.73137 16.5063 7.64537 16.4343 8.59737L16.4263 8.70237L16.4173 8.80637C16.3673 9.37837 16.2933 9.94637 16.1823 10.3644C16.0916 10.7043 15.9132 11.0145 15.6648 11.2637C15.4165 11.5129 15.107 11.6925 14.7673 11.7844C13.6073 12.0964 9.19833 12.1184 8.58733 12.1194H8.44533C8.13633 12.1194 6.85833 12.1134 5.51833 12.0674L5.34833 12.0614L5.26133 12.0574L4.91933 12.0434C3.80933 11.9944 2.75233 11.9154 2.26533 11.7834C1.92582 11.6916 1.6164 11.5122 1.36806 11.2631C1.11972 11.0141 0.941181 10.7041 0.850334 10.3644C0.739334 9.94737 0.665334 9.37837 0.615334 8.80637L0.599334 8.59737C0.549982 7.91977 0.522634 7.24075 0.517334 6.56137V6.43837C0.519334 6.22337 0.527334 5.48037 0.581334 4.66037L0.588334 4.55737L0.591334 4.50537L0.599334 4.40137L0.621334 4.14137L0.631334 4.03737C0.679334 3.51837 0.750334 3.01437 0.851334 2.63537C0.942028 2.29542 1.1205 1.98528 1.36885 1.73605C1.6172 1.48682 1.9267 1.30726 2.26633 1.21537C2.75333 1.08537 3.81033 1.00537 4.92033 0.955371L5.09033 0.948371L5.34833 0.939371L5.51933 0.932371C6.47104 0.901746 7.42314 0.884744 8.37533 0.881371H8.56833V0.880371ZM6.91733 4.09037V8.90837L11.0743 6.50037L6.91733 4.09037Z" fill="#A1AB23"/>
</svg>
